<?xml version="1.0" encoding="iso-8859-1"?>
<!-- Generator: Adobe Illustrator 19.0.0, SVG Export Plug-In . SVG Version: 6.00 Build 0)  -->
<svg version="1.1" id="Capa_1" xmlns="http://www.w3.org/2000/svg" xmlns:xlink="http://www.w3.org/1999/xlink" x="0px" y="0px"
	 viewBox="0 0 512 512" style="enable-background:new 0 0 512 512;" xml:space="preserve">
<path style="fill:#303C42;" d="M213.333,89.936V32c0-5.896-4.771-10.667-10.667-10.667h-64C132.771,21.333,128,26.104,128,32v57.936
	c-26.401,15.836-42.667,43.915-42.667,75.095v304.302C85.333,492.865,104.479,512,128,512h85.333
	C236.854,512,256,492.865,256,469.333V165.031C256,133.852,239.734,105.772,213.333,89.936z"/>
<path style="fill:#3E8B94;" d="M149.333,42.667H192v10.667c-5.891,0-10.667,4.775-10.667,10.667c0,5.891,4.776,10.667,10.667,10.667
	v10.667h-42.667V42.667z"/>
<path id="SVGCleanerId_0" style="fill:#3E8B94;" d="M141.292,106.667h58.75c16.715,9.113,28.324,24.637,32.663,42.667H108.629
	C112.967,131.303,124.577,115.78,141.292,106.667z"/>
<path style="fill:#65C5B4;" d="M213.333,490.667H128c-11.771,0-21.333-9.573-21.333-21.333V170.667h128v298.667
	C234.667,481.094,225.104,490.667,213.333,490.667z"/>
<g>
	<path id="SVGCleanerId_0_1_" style="fill:#3E8B94;" d="M141.292,106.667h58.75c16.715,9.113,28.324,24.637,32.663,42.667H108.629
		C112.967,131.303,124.577,115.78,141.292,106.667z"/>
</g>
<path style="opacity:0.2;fill:#FFFFFF;enable-background:new    ;" d="M141.292,106.667c-16.715,9.113-28.324,24.637-32.663,42.667
	h20.68c2.892-18.03,10.632-33.553,21.775-42.667H141.292z"/>
<path style="opacity:0.1;enable-background:new    ;" d="M200.042,106.667h-9.792c11.143,9.113,18.883,24.637,21.775,42.667h20.68
	C228.366,131.303,216.757,115.78,200.042,106.667z"/>
<path style="opacity:0.2;fill:#FFFFFF;enable-background:new    ;" d="M128,469.333V170.667h-21.333v298.667
	c0,11.76,9.563,21.333,21.333,21.333h14.223C134.375,490.667,128,481.094,128,469.333z"/>
<path style="opacity:0.1;enable-background:new    ;" d="M213.333,170.667v298.667c0,11.76-6.375,21.333-14.223,21.333h14.223
	c11.771,0,21.333-9.573,21.333-21.333V170.667H213.333z"/>
<g>
	<path style="fill:#303C42;" d="M298.667,64c0-5.896-4.771-10.667-10.667-10.667h-32c-5.896,0-10.667,4.771-10.667,10.667
		S250.104,74.667,256,74.667h32C293.896,74.667,298.667,69.896,298.667,64z"/>
	<path style="fill:#303C42;" d="M277.333,96c0,5.896,4.771,10.667,10.667,10.667h42.667c5.896,0,10.667-4.771,10.667-10.667
		c0-5.896-4.771-10.667-10.667-10.667H288C282.104,85.333,277.333,90.104,277.333,96z"/>
	<path style="fill:#303C42;" d="M394.438,47.031c0.146-1.458,0.229-2.906,0.229-4.365C394.667,19.135,375.521,0,352,0
		c-23.521,0-42.667,19.135-42.667,42.667c0,5.896,4.771,10.667,10.667,10.667c5.896,0,10.667-4.771,10.667-10.667
		c0-11.76,9.563-21.333,21.333-21.333c11.771,0,21.333,9.573,21.333,21.333c0,2.521-0.5,5.094-1.5,7.646
		c-1.146,2.938-0.938,6.229,0.583,9c1.5,2.76,4.167,4.708,7.25,5.333c14.875,2.979,25.667,16.167,25.667,31.354
		c0,14.552-9.917,27.25-24.125,30.875c-4.875,1.25-8.083,6.75-7.875,11.792c0,14.906-16.063,26.354-30.771,18.99
		c-5.125-2.573-11.375-0.615-14.146,4.438c-2.917,5.365-8.063,8.573-13.75,8.573c-8.813,0-16-7.177-16-16
		c0-5.896-4.771-10.667-10.667-10.667c-5.896,0-10.667,4.771-10.667,10.667c0,20.583,16.75,37.333,37.333,37.333
		c10.292,0,20.021-4.448,26.979-12c23.625,6.146,48.042-10.188,52.208-34.906c19.646-8.177,32.813-27.396,32.813-49.094
		C426.667,74.448,413.625,55.313,394.438,47.031z"/>
</g>
<linearGradient id="SVGID_1_" gradientUnits="userSpaceOnUse" x1="-43.8293" y1="638.3885" x2="-30.8383" y2="632.3334" gradientTransform="matrix(21.3333 0 0 -21.3333 996.3334 13791.667)">
	<stop  offset="0" style="stop-color:#FFFFFF;stop-opacity:0.2"/>
	<stop  offset="1" style="stop-color:#FFFFFF;stop-opacity:0"/>
</linearGradient>
<path style="fill:url(#SVGID_1_);" d="M213.333,89.936V32c0-5.896-4.771-10.667-10.667-10.667h-64C132.771,21.333,128,26.104,128,32
	v57.936c-26.401,15.836-42.667,43.915-42.667,75.095v304.302C85.333,492.865,104.479,512,128,512h85.333
	C236.854,512,256,492.865,256,469.333V165.031C256,133.852,239.734,105.772,213.333,89.936z M298.667,64
	c0-5.896-4.771-10.667-10.667-10.667h-32c-5.896,0-10.667,4.771-10.667,10.667S250.104,74.667,256,74.667h32
	C293.896,74.667,298.667,69.896,298.667,64z M277.333,96c0,5.896,4.771,10.667,10.667,10.667h42.667
	c5.896,0,10.667-4.771,10.667-10.667c0-5.896-4.771-10.667-10.667-10.667H288C282.104,85.333,277.333,90.104,277.333,96z
	 M394.438,47.031c0.146-1.458,0.229-2.906,0.229-4.365C394.667,19.135,375.521,0,352,0c-23.521,0-42.667,19.135-42.667,42.667
	c0,5.896,4.771,10.667,10.667,10.667c5.896,0,10.667-4.771,10.667-10.667c0-11.76,9.563-21.333,21.333-21.333
	c11.771,0,21.333,9.573,21.333,21.333c0,2.521-0.5,5.094-1.5,7.646c-1.146,2.938-0.938,6.229,0.583,9
	c1.5,2.76,4.167,4.708,7.25,5.333c14.875,2.979,25.667,16.167,25.667,31.354c0,14.552-9.917,27.25-24.125,30.875
	c-4.875,1.25-8.083,6.75-7.875,11.792c0,14.906-16.063,26.354-30.771,18.99c-5.125-2.573-11.375-0.615-14.146,4.438
	c-2.917,5.365-8.063,8.573-13.75,8.573c-8.813,0-16-7.177-16-16c0-5.896-4.771-10.667-10.667-10.667
	c-5.896,0-10.667,4.771-10.667,10.667c0,20.583,16.75,37.333,37.333,37.333c10.292,0,20.021-4.448,26.979-12
	c23.625,6.146,48.042-10.188,52.208-34.906c19.646-8.177,32.813-27.396,32.813-49.094C426.667,74.448,413.625,55.313,394.438,47.031
	z"/>
<g>
</g>
<g>
</g>
<g>
</g>
<g>
</g>
<g>
</g>
<g>
</g>
<g>
</g>
<g>
</g>
<g>
</g>
<g>
</g>
<g>
</g>
<g>
</g>
<g>
</g>
<g>
</g>
<g>
</g>
</svg>
