<?xml version="1.0" encoding="iso-8859-1"?>
<!-- Generator: Adobe Illustrator 19.0.0, SVG Export Plug-In . SVG Version: 6.00 Build 0)  -->
<svg version="1.1" id="Capa_1" xmlns="http://www.w3.org/2000/svg" xmlns:xlink="http://www.w3.org/1999/xlink" x="0px" y="0px"
	 viewBox="0 0 512 512" style="enable-background:new 0 0 512 512;" xml:space="preserve">
<g>
	<g transform="translate(0 1)">
		<path style="fill:#F57C00;" d="M503.467,161.133V24.6c0-9.426-7.641-17.067-17.067-17.067H25.6
			c-9.426,0-17.067,7.641-17.067,17.067v136.533c0,9.426,7.641,17.066,17.067,17.067c-9.426,0-17.067,7.641-17.067,17.067V485.4
			c0,9.426,7.641,17.066,17.067,17.067h460.8c9.426,0,17.066-7.641,17.067-17.067V195.267c0-9.426-7.641-17.067-17.067-17.067
			C495.826,178.2,503.466,170.559,503.467,161.133z"/>
		<path style="fill:#FF9801;" d="M477.867,161.133V24.6c0.237-9.179-7.005-16.816-16.184-17.067H24.717
			C15.538,7.784,8.296,15.421,8.533,24.6v136.533c-0.237,9.179,7.005,16.816,16.184,17.067c-9.179,0.25-16.421,7.887-16.184,17.067
			V485.4c-0.237,9.179,7.005,16.816,16.184,17.067h436.966c9.179-0.25,16.421-7.887,16.184-17.067V195.267
			c0.237-9.179-7.005-16.816-16.184-17.067C470.862,177.95,478.104,170.313,477.867,161.133z"/>
		<circle style="fill:#E91E63;" cx="98.133" cy="267.8" r="55.467"/>
		<circle style="fill:#2296F3;" cx="98.133" cy="412.867" r="55.467"/>
		<circle style="fill:#3F51B5;" cx="243.2" cy="267.8" r="55.467"/>
		<circle style="fill:#00BCD4;" cx="243.2" cy="412.867" r="55.467"/>
		<path style="fill:#F5F5F5;" d="M460.544,255.512l-19.115,38.315h-0.085l-14.677,29.44h-51.2l-14.677-29.44h-0.085l-19.115-38.315
			c-0.057-0.174-0.025-0.365,0.085-0.512c2.645-23.979,28.245-42.667,59.392-42.667s56.747,18.688,59.392,42.667
			C460.569,255.147,460.601,255.338,460.544,255.512z"/>
		<path style="fill:#FFB301;" d="M25.6,7.533h460.8c9.426,0,17.067,7.641,17.067,17.067v136.533c0,9.426-7.641,17.067-17.067,17.067
			H25.6c-9.426,0-17.067-7.641-17.067-17.067V24.6C8.533,15.174,16.174,7.533,25.6,7.533z"/>
		<path style="fill:#FEC108;" d="M25.6,7.533h435.2c9.426,0,17.067,7.641,17.067,17.067v136.533c0,9.426-7.641,17.067-17.067,17.067
			H25.6c-9.426,0-17.067-7.641-17.067-17.067V24.6C8.533,15.174,16.174,7.533,25.6,7.533z"/>
		<path style="fill:#CFD8DC;" d="M59.733,41.667h392.533c9.426,0,17.067,7.641,17.067,17.067v76.8
			c0,9.426-7.641,17.067-17.067,17.067H59.733c-9.426,0-17.067-7.641-17.067-17.067v-76.8
			C42.667,49.308,50.308,41.667,59.733,41.667z"/>
		<path style="fill:#F5F5F5;" d="M59.733,41.667h366.933c9.426,0,17.067,7.641,17.067,17.067v76.8
			c0,9.426-7.641,17.067-17.067,17.067H59.733c-9.426,0-17.067-7.641-17.067-17.067v-76.8
			C42.667,49.308,50.308,41.667,59.733,41.667z"/>
		<path style="fill:#CFD8DC;" d="M426.667,357.4v85.333c0,14.138-11.462,25.6-25.6,25.6c-14.138,0-25.6-11.462-25.6-25.6V357.4
			H426.667z"/>
		<rect x="375.467" y="323.267" style="fill:#795548;" width="51.2" height="34.133"/>
	</g>
	<g>
		<path d="M98.133,204.8c-35.346,0-64,28.654-64,64s28.654,64,64,64s64-28.654,64-64C162.095,233.47,133.464,204.839,98.133,204.8z
			 M98.133,315.733c-25.921,0-46.933-21.013-46.933-46.933s21.013-46.933,46.933-46.933s46.933,21.013,46.933,46.933
			C145.036,294.708,124.041,315.703,98.133,315.733z"/>
		<path d="M98.133,349.867c-35.346,0-64,28.654-64,64s28.654,64,64,64s64-28.654,64-64
			C162.095,378.536,133.464,349.905,98.133,349.867z M98.133,460.8c-25.921,0-46.933-21.013-46.933-46.933
			c0-25.921,21.013-46.933,46.933-46.933s46.933,21.013,46.933,46.933C145.036,439.775,124.041,460.769,98.133,460.8z"/>
		<path d="M243.2,204.8c-35.346,0-64,28.654-64,64s28.654,64,64,64s64-28.654,64-64C307.161,233.47,278.53,204.839,243.2,204.8z
			 M243.2,315.733c-25.921,0-46.933-21.013-46.933-46.933s21.013-46.933,46.933-46.933s46.933,21.013,46.933,46.933
			C290.103,294.708,269.108,315.703,243.2,315.733z"/>
		<path d="M243.2,349.867c-35.346,0-64,28.654-64,64s28.654,64,64,64s64-28.654,64-64C307.161,378.536,278.53,349.905,243.2,349.867
			z M243.2,460.8c-25.921,0-46.933-21.013-46.933-46.933c0-25.921,21.013-46.933,46.933-46.933s46.933,21.013,46.933,46.933
			C290.103,439.775,269.108,460.769,243.2,460.8z"/>
		<path d="M401.067,204.8c-35.392,0-64.475,21.438-67.833,49.917c-0.339,1.898-0.085,3.855,0.725,5.604l19.108,38.312
			c0.171,0.346,0.366,0.68,0.583,1l13.283,26.637v117.463c0,18.851,15.282,34.133,34.133,34.133
			c18.851,0,34.133-15.282,34.133-34.133V326.269l13.267-26.615c0.226-0.325,0.426-0.666,0.6-1.021l19.108-38.313
			c0.033-0.07,0.035-0.157,0.067-0.228c0.05-0.091,0.128-0.158,0.175-0.251c1.137-2.299,1.173-4.988,0.1-7.318
			C463.948,225.152,435.54,204.8,401.067,204.8z M418.133,332.8v17.067H384V332.8H418.133z M418.133,443.733
			c0,9.426-7.641,17.067-17.067,17.067S384,453.159,384,443.733v-76.8h34.133V443.733z M434.308,289.996
			c-0.225,0.325-0.425,0.666-0.6,1.021l-12.325,24.717H409.6v-25.6c0-4.713-3.821-8.533-8.533-8.533s-8.533,3.821-8.533,8.533v25.6
			H380.75l-12.325-24.717c-0.171-0.348-0.369-0.682-0.592-1L350.417,255.1c3.308-18.779,25.092-33.233,50.65-33.233
			c25.55,0,47.333,14.454,50.65,33.229L434.308,289.996z"/>
		<path d="M486.4,0H25.6C11.468,0.015,0.015,11.468,0,25.6v136.533c0.02,6.319,2.394,12.404,6.658,17.067
			C2.394,183.863,0.02,189.948,0,196.267V486.4c0.015,14.132,11.468,25.585,25.6,25.6h460.8c14.132-0.015,25.585-11.468,25.6-25.6
			V196.267c-0.02-6.319-2.394-12.404-6.658-17.067c4.265-4.663,6.639-10.748,6.658-17.067V25.6
			C511.985,11.468,500.532,0.015,486.4,0z M17.067,25.6c0.005-4.711,3.822-8.529,8.533-8.533h460.8
			c4.711,0.005,8.529,3.822,8.533,8.533v136.533c-0.005,4.711-3.822,8.529-8.533,8.533H25.6c-4.711-0.005-8.529-3.822-8.533-8.533
			V25.6z M494.933,486.4c-0.005,4.711-3.822,8.529-8.533,8.533H25.6c-4.711-0.005-8.529-3.822-8.533-8.533V196.267
			c0.005-4.711,3.822-8.529,8.533-8.533h460.8c4.711,0.005,8.529,3.822,8.533,8.533V486.4z"/>
		<path d="M59.733,162.133h392.533c14.132-0.015,25.585-11.468,25.6-25.6v-76.8c-0.015-14.132-11.468-25.585-25.6-25.6H59.733
			c-14.132,0.015-25.585,11.468-25.6,25.6v76.8C34.149,150.665,45.601,162.118,59.733,162.133z M51.2,59.733
			c0.005-4.711,3.822-8.529,8.533-8.533h392.533c4.711,0.005,8.529,3.822,8.533,8.533v76.8c-0.005,4.711-3.822,8.529-8.533,8.533
			H59.733c-4.711-0.005-8.529-3.822-8.533-8.533V59.733z"/>
		<path d="M429.167,91.366c3.341,3.281,8.701,3.256,12.012-0.054c3.311-3.311,3.335-8.671,0.054-12.012l-17.067-17.067
			c-3.341-3.281-8.701-3.256-12.012,0.054c-3.311,3.311-3.335,8.671-0.054,12.012L429.167,91.366z"/>
		<path d="M429.167,134.033c3.341,3.281,8.701,3.256,12.012-0.054c3.311-3.311,3.335-8.671,0.054-12.012L381.5,62.234
			c-3.341-3.281-8.701-3.256-12.012,0.054c-3.311,3.311-3.335,8.671-0.054,12.012L429.167,134.033z"/>
	</g>
</g>
<g>
</g>
<g>
</g>
<g>
</g>
<g>
</g>
<g>
</g>
<g>
</g>
<g>
</g>
<g>
</g>
<g>
</g>
<g>
</g>
<g>
</g>
<g>
</g>
<g>
</g>
<g>
</g>
<g>
</g>
</svg>
